Coordinates
version=1
nRows=13
nColumns=34
inDegrees=yes

Units are S.I. units (second, meters, Newtons, ...)
Angles are in degrees.

endheader
time	pelvis_tilt	pelvis_list	pelvis_rotation	pelvis_tx	pelvis_ty	pelvis_tz	hip_flexion_r	hip_adduction_r	hip_rotation_r	knee_angle_r	ankle_angle_r	subtalar_angle_r	mtp_angle_r	hip_flexion_l	hip_adduction_l	hip_rotation_l	knee_angle_l	socket_flexion	socket_adduction	socket_rotation	socket_tx	socket_ty	socket_tz	pros_ankle_rx	pros_ankle_ry	pros_ankle_rz	pros_ankle_tx	pros_ankle_ty	pros_ankle_tz	foot_flex	lumbar_extension	lumbar_bending	lumbar_rotation
      0.90416667	      2.18596389	     -6.88823064	      1.62452516	      0.46888851	      1.04897769	      0.36748136	      7.81063679	     10.84129191	     -7.53674915	    -19.88963514	      8.17124240	     14.41818788	     15.35621972	     14.54015234	    -13.65503116	     -2.56652052	    -67.24593499	     -2.30760943	      0.00000000	      0.00000000	      0.00000000	      0.00000000	      0.00000000	      0.00000000	      0.00000000	      0.00000000	      0.00000000	      0.00000000	      0.00000000	     -1.66649125	    -21.24439061	      2.24813032	      0.75205554
      0.90833333	      2.12943471	     -6.76688830	      1.57692623	      0.47377536	      1.05007728	      0.36740603	      7.41778132	     10.70340566	     -7.48817813	    -19.62595583	      8.15777011	     14.57533903	     15.40438358	     15.07786183	    -13.38924967	     -2.36705157	    -66.77510566	     -2.28871504	      0.00000000	      0.00000000	      0.00000000	      0.00000000	      0.00000000	      0.00000000	      0.00000000	      0.00000000	      0.00000000	      0.00000000	      0.00000000	     -1.72049312	    -21.29245710	      2.13690602	      0.79662071
      0.91250000	      2.09860560	     -6.64113834	      1.53952318	      0.47862906	      1.05124786	      0.36731682	      6.98804629	     10.56036356	     -7.49541720	    -19.32786660	      8.09597080	     14.76430124	     15.46097110	     15.56228898	    -13.09750882	     -2.13535585	    -66.19854539	     -2.20863545	      0.00000000	      0.00000000	      0.00000000	      0.00000000	      0.00000000	      0.00000000	      0.00000000	      0.00000000	      0.00000000	      0.00000000	      0.00000000	     -1.72251617	    -21.24091949	      1.97612481	      0.84970299
      0.91666667	      2.05777681	     -6.50708543	      1.49429255	      0.48356505	      1.05241763	      0.36723839	      6.56234556	     10.39597390	     -7.51992983	    -19.03301465	      8.00720192	     14.97621317	     15.52516775	     16.02068313	    -12.80329207	     -1.93187935	    -65.56355709	     -2.13270623	      0.00000000	      0.00000000	      0.00000000	      0.00000000	      0.00000000	      0.00000000	      0.00000000	      0.00000000	      0.00000000	      0.00000000	      0.00000000	     -1.73754709	    -21.19640950	      1.82029151	      0.90027004
      0.92083333	      2.02156818	     -6.37946713	      1.43859439	      0.48847899	      1.05357893	      0.36716772	      6.13860730	     10.23925555	     -7.54829930	    -18.74531217	      7.90575061	     15.21146494	     15.59934589	     16.45228791	    -12.51274903	     -1.73207781	    -64.88486925	     -2.06532606	      0.00000000	      0.00000000	      0.00000000	      0.00000000	      0.00000000	      0.00000000	      0.00000000	      0.00000000	      0.00000000	      0.00000000	      0.00000000	     -1.74281723	    -21.15566577	      1.66156131	      0.95345170
      0.92500000	      2.00546311	     -6.22837879	      1.40684917	      0.49345258	      1.05481600	      0.36706636	      5.67932009	     10.05600042	     -7.59181649	    -18.44194830	      7.75041605	     15.51795001	     15.70912989	     16.82549500	    -12.18802058	     -1.53007675	    -64.10197445	     -1.94911518	      0.00000000	      0.00000000	      0.00000000	      0.00000000	      0.00000000	      0.00000000	      0.00000000	      0.00000000	      0.00000000	      0.00000000	      0.00000000	     -1.72629997	    -21.07543376	      1.45628954	      1.01122585
      0.92916667	      1.97941084	     -6.11789461	      1.31244332	      0.49829511	      1.05593964	      0.36705012	      5.26725127	      9.90678268	     -7.63636639	    -18.18314501	      7.64518489	     15.78629688	     15.81720485	     17.21031183	    -11.92974880	     -1.37295396	    -63.36095520	     -1.90490886	      0.00000000	      0.00000000	      0.00000000	      0.00000000	      0.00000000	      0.00000000	      0.00000000	      0.00000000	      0.00000000	      0.00000000	      0.00000000	     -1.74388790	    -21.07553388	      1.31817385	      1.07089577
      0.93333333	      2.04810888	     -5.90555841	      1.23409220	      0.50333352	      1.05733581	      0.36704472	      4.71972992	      9.63068482	     -7.79127889	    -17.88355867	      7.36958822	     16.27170145	     16.09505917	     17.38932655	    -11.55586541	     -1.25157056	    -62.40797089	     -1.76156809	      0.00000000	      0.00000000	      0.00000000	      0.00000000	      0.00000000	      0.00000000	      0.00000000	      0.00000000	      0.00000000	      0.00000000	      0.00000000	     -1.66719835	    -21.00372289	      0.99548368	      1.12861270
      0.93750000	      2.01450362	     -5.83752605	      1.15358623	      0.50807146	      1.05835990	      0.36703696	      4.32727066	      9.54705173	     -7.75716217	    -17.65123019	      7.34695084	     16.54614286	     16.24610263	     17.78170332	    -11.33859153	     -1.05638232	    -61.63530591	     -1.74025426	      0.00000000	      0.00000000	      0.00000000	      0.00000000	      0.00000000	      0.00000000	      0.00000000	      0.00000000	      0.00000000	      0.00000000	      0.00000000	     -1.71003531	    -21.07089509	      0.93093229	      1.21324638
      0.94166667	      2.27592223	     -5.56679218	      1.04654311	      0.51309437	      1.06005555	      0.36711503	      3.61009088	      9.16818810	     -8.08219305	    -17.42631901	      7.13049955	     17.40665749	     17.35284718	     17.65586573	    -10.93397587	     -1.04175617	    -60.51591691	     -1.58601889	      0.00000000	      0.00000000	      0.00000000	      0.00000000	      0.00000000	      0.00000000	      0.00000000	      0.00000000	      0.00000000	      0.00000000	      0.00000000	     -1.67024785	    -21.38737403	      0.52417671	      1.28243933
      0.94583333	      2.17360958	     -5.56757398	      0.96526937	      0.51783934	      1.06089950	      0.36705695	      3.27955550	      9.15841330	     -8.02600523	    -17.15473794	      7.08577452	     17.56140643	     17.43596545	     18.11279457	    -10.78847915	     -0.82485135	    -59.72763013	     -1.60932543	      0.00000000	      0.00000000	      0.00000000	      0.00000000	      0.00000000	      0.00000000	      0.00000000	      0.00000000	      0.00000000	      0.00000000	      0.00000000	     -1.71345942	    -21.33025637	      0.55174628	      1.38312817
      0.95000000	      2.08250827	     -5.52803204	      0.86578876	      0.52272373	      1.06181737	      0.36706538	      2.90958281	      9.10330992	     -7.98510554	    -16.83651647	      6.93641204	     17.74965549	     17.52396600	     18.48649141	    -10.60965581	     -0.65040744	    -58.81652070	     -1.58866201	      0.00000000	      0.00000000	      0.00000000	      0.00000000	      0.00000000	      0.00000000	      0.00000000	      0.00000000	      0.00000000	      0.00000000	      0.00000000	     -1.69527892	    -21.19326075	      0.49193897	      1.50120899
      0.95416667	      2.02384175	     -5.42879390	      0.73386397	      0.52770640	      1.06283753	      0.36715201	      2.47970792	      8.98193725	     -7.94090293	    -16.48074128	      6.65926125	     17.98936522	     17.67670130	     18.74928820	    -10.37881730	     -0.53523243	    -57.76739550	     -1.51219664	      0.00000000	      0.00000000	      0.00000000	      0.00000000	      0.00000000	      0.00000000	      0.00000000	      0.00000000	      0.00000000	      0.00000000	      0.00000000	     -1.63348232	    -21.02303265	      0.31449446	      1.64455326
